<svg width="26" height="26" viewBox="0 0 26 26" fill="none" xmlns="http://www.w3.org/2000/svg">
<path d="M9.30801 4.50292C10.7182 1.50098 11.4232 8.83866e-06 12.5664 8.83866e-06C13.7096 8.83866e-06 14.4146 1.50098 15.8248 4.50291L16.4402 5.81303C16.8957 6.78267 17.1235 7.26749 17.4944 7.63845C17.8654 8.00941 18.3502 8.23715 19.3198 8.69264L20.63 9.30807C23.6319 10.7182 25.1329 11.4233 25.1329 12.5665C25.1329 13.7096 23.6319 14.4147 20.63 15.8249L19.3198 16.4403C18.3502 16.8958 17.8654 17.1235 17.4944 17.4945C17.1235 17.8654 16.8957 18.3503 16.4402 19.3199L15.8248 20.63C14.4146 23.632 13.7096 25.1329 12.5664 25.1329C11.4232 25.1329 10.7182 23.632 9.30801 20.63L8.69258 19.3199C8.23709 18.3503 8.00935 17.8654 7.63839 17.4945C7.26743 17.1235 6.78261 16.8958 5.81297 16.4403L4.50286 15.8249C1.50092 14.4147 -5.21965e-05 13.7096 -5.21965e-05 12.5665C-5.21965e-05 11.4233 1.50092 10.7182 4.50285 9.30807L5.81297 8.69264C6.78261 8.23715 7.26743 8.00941 7.63839 7.63845C8.00935 7.26749 8.23709 6.78267 8.69258 5.81303L9.30801 4.50292Z" fill="#2C67D6"/>
</svg>
