<svg width="51" height="51" viewBox="0 0 51 51" fill="none" xmlns="http://www.w3.org/2000/svg">
<path d="M18.6161 9.00583C21.4365 3.00196 22.8466 1.76773e-05 25.1329 1.76773e-05C27.4192 1.76773e-05 28.8294 3.00195 31.6497 9.00583L32.8806 11.6261C33.7916 13.5653 34.2471 14.535 34.989 15.2769C35.7309 16.0188 36.7005 16.4743 38.6398 17.3853L41.26 18.6161C47.2639 21.4365 50.2659 22.8466 50.2659 25.1329C50.2659 27.4192 47.2639 28.8294 41.26 31.6497L38.6398 32.8806C36.7005 33.7916 35.7309 34.2471 34.989 34.989C34.2471 35.7309 33.7916 36.7005 32.8806 38.6398L31.6497 41.26C28.8294 47.2639 27.4192 50.2659 25.1329 50.2659C22.8466 50.2659 21.4365 47.2639 18.6161 41.26L17.3853 38.6398C16.4743 36.7005 16.0188 35.7309 15.2769 34.989C14.535 34.2471 13.5653 33.7916 11.6261 32.8806L9.00583 31.6497C3.00196 28.8294 1.76773e-05 27.4192 1.76773e-05 25.1329C1.76773e-05 22.8466 3.00195 21.4365 9.00583 18.6161L11.6261 17.3853C13.5653 16.4743 14.535 16.0188 15.2769 15.2769C16.0188 14.535 16.4743 13.5653 17.3853 11.6261L18.6161 9.00583Z" fill="#2C67D6"/>
</svg>
