<svg width="190" height="220" viewBox="0 0 190 220" fill="none" xmlns="http://www.w3.org/2000/svg">
<path d="M51.4729 217.869C57.8308 217.869 62.9854 212.715 62.9856 206.357V78.8768C62.9857 76.6628 63.8042 74.5383 65.2922 72.9031C74.3364 62.9653 104.633 29.6834 126.24 6.01837L126.042 104.314C126.032 109.216 122.055 113.185 117.153 113.185H90.7756C84.4177 113.185 79.2629 118.34 79.2629 124.698V141.949C79.2633 151.609 90.4436 156.973 97.9788 150.929L134.875 121.332C136.129 120.326 137.661 119.682 139.306 119.378C166.894 114.282 187.802 90.1299 187.802 61.0613C187.802 29.0058 162.301 2.49297 130.497 1.35431L130.533 1.31525H72.2678C65.9546 1.31525 60.8191 6.39987 60.7561 12.7127L60.2473 63.7225C60.1987 68.5967 56.234 72.522 51.3596 72.5223H12.8235C6.46565 72.5224 1.31177 77.6771 1.31177 84.035V206.357C1.31193 212.715 6.46575 217.869 12.8235 217.869H51.4729Z" fill="#0059FF" stroke="#0059FF" stroke-width="2.62328"/>
</svg>
