<svg width="327" height="71" viewBox="0 0 327 71" fill="none" xmlns="http://www.w3.org/2000/svg">
<path d="M2.26907 70.2213V39.4628V27.6132H11.2193V37.8871H11.6605C12.1227 35.4079 12.816 33.3489 13.7405 31.7102C14.6649 30.0294 15.8415 28.7898 17.2701 27.9914C18.7408 27.151 20.5057 26.7308 22.5646 26.7308C25.1698 26.7308 27.3759 27.4031 29.1827 28.7478C31.0316 30.0504 32.4183 32.0043 33.3427 34.6095C34.3091 37.1727 34.7924 40.3452 34.7924 44.127C34.7924 48.2029 34.2461 51.5435 33.1536 54.1487C32.1031 56.754 30.6534 58.6869 28.8046 59.9475C26.9557 61.166 24.8547 61.7753 22.5016 61.7753C20.6107 61.7753 18.9299 61.3761 17.4592 60.5778C16.0305 59.7794 14.833 58.5608 13.8665 56.922C12.9421 55.2412 12.2908 53.1403 11.9126 50.6191H11.3453C11.5554 51.8376 11.7445 53.1192 11.9126 54.4639C12.0807 55.7665 12.2067 57.0691 12.2908 58.3717C12.4168 59.6323 12.4799 60.8509 12.4799 62.0274V70.2213H2.26907ZM18.6568 53.3924C20.0014 53.3924 21.0939 52.9722 21.9343 52.1318C22.8167 51.2914 23.447 50.1989 23.8252 48.8542C24.2454 47.4676 24.4555 46.0179 24.4555 44.5052C24.4555 42.8244 24.2244 41.3117 23.7622 39.9671C23.342 38.5804 22.6907 37.4879 21.8083 36.6895C20.9679 35.8491 19.9174 35.4289 18.6568 35.4289C17.8584 35.4289 17.081 35.618 16.3247 35.9962C15.5683 36.3323 14.896 36.8786 14.3077 37.635C13.7195 38.3493 13.2362 39.2737 12.8581 40.4083C12.5219 41.5428 12.3538 42.9084 12.3538 44.5052V44.8834C12.3538 46.144 12.4799 47.2365 12.732 48.1609C12.9841 49.0853 13.3203 49.8837 13.7405 50.556C14.1607 51.2284 14.6439 51.7746 15.1901 52.1948C15.7364 52.615 16.3037 52.9302 16.8919 53.1403C17.4802 53.3083 18.0685 53.3924 18.6568 53.3924ZM44.888 60.8929V16.7721H55.0988V60.8929H44.888ZM74.7246 61.7753C73.0438 61.7753 71.4471 61.4812 69.9344 60.8929C68.4217 60.3046 67.1821 59.3592 66.2156 58.0566C65.2492 56.7119 64.7659 54.9261 64.7659 52.699C64.7659 50.6401 65.1651 48.9803 65.9635 47.7197C66.7619 46.4171 67.8334 45.3876 69.178 44.6312C70.5226 43.8329 71.9933 43.2446 73.5901 42.8664C75.1868 42.4462 76.7626 42.089 78.3173 41.7949C80.5023 41.3747 82.1411 41.0386 83.2336 40.7864C84.3261 40.5343 85.0615 40.2402 85.4397 39.904C85.8599 39.5679 86.07 39.1056 86.07 38.5174C86.07 37.2988 85.6077 36.3744 84.6833 35.7441C83.8009 35.1138 82.6243 34.7986 81.1536 34.7986C80.2292 34.7986 79.3048 34.9667 78.3803 35.3029C77.4559 35.639 76.6995 36.2483 76.1113 37.1307C75.523 37.9711 75.2499 39.1897 75.2919 40.7864L66.2156 40.1561C66.1316 37.5089 66.5308 35.3239 67.4132 33.6011C68.2956 31.8362 69.4932 30.4706 71.0059 29.5041C72.5606 28.4957 74.2414 27.7813 76.0482 27.3611C77.8971 26.9409 79.725 26.7308 81.5318 26.7308C84.8514 26.7308 87.5827 27.3611 89.7257 28.6217C91.8687 29.8403 93.4444 31.6261 94.4529 33.9792C95.5034 36.2903 96.0286 39.1056 96.0286 42.4252V48.35C96.0286 49.7366 96.0286 51.1443 96.0286 52.573C96.0286 53.9596 96.0286 55.3463 96.0286 56.7329C96.0286 58.1196 96.0286 59.5062 96.0286 60.8929H87.2045C87.2045 59.3802 87.2045 57.8465 87.2045 56.2917C87.2045 54.737 87.2045 53.0982 87.2045 51.3754H86.8263C86.6582 53.2663 86.0279 55.0101 84.9354 56.6069C83.8849 58.1616 82.4773 59.4222 80.7124 60.3887C78.9896 61.3131 76.9937 61.7753 74.7246 61.7753ZM78.9476 54.3378C79.6619 54.3378 80.4183 54.2118 81.2167 53.9596C82.0571 53.6655 82.8344 53.2033 83.5488 52.573C84.3051 51.9427 84.9144 51.0813 85.3766 49.9888C85.8388 48.8542 86.07 47.4676 86.07 45.8288V44.3161L87.7718 44.127C87.4356 44.6733 86.8683 45.1145 86.07 45.4506C85.3136 45.7868 84.4522 46.0599 83.4857 46.27C82.5193 46.4381 81.5318 46.6272 80.5233 46.8373C79.5569 47.0054 78.6535 47.2575 77.8131 47.5936C76.9727 47.8878 76.2794 48.308 75.7331 48.8542C75.2289 49.3585 74.9767 50.0728 74.9767 50.9972C74.9767 52.0898 75.3549 52.9302 76.1113 53.5184C76.9096 54.0647 77.8551 54.3378 78.9476 54.3378ZM106.49 60.8929V42.047V27.6132H115.125V41.1646H115.629C115.881 37.8871 116.427 35.1978 117.268 33.0968C118.108 30.9538 119.306 29.3571 120.86 28.3066C122.415 27.2561 124.39 26.7308 126.785 26.7308C130.399 26.7308 133.109 27.9284 134.916 30.3235C136.765 32.7186 137.689 36.2903 137.689 41.0386V60.8929H127.478V42.3622C127.478 40.0931 127.121 38.3913 126.407 37.2568C125.735 36.1222 124.642 35.555 123.129 35.555C121.869 35.555 120.755 35.9962 119.789 36.8786C118.822 37.761 118.066 39.1897 117.52 41.1646C116.974 43.1395 116.7 45.7868 116.7 49.1064V60.8929H106.49ZM148.185 60.8929V42.047V27.6132H156.82V41.1646H157.324C157.577 37.8871 158.123 35.1978 158.963 33.0968C159.804 30.9538 161.001 29.3571 162.556 28.3066C164.111 27.2561 166.086 26.7308 168.481 26.7308C172.094 26.7308 174.805 27.9284 176.612 30.3235C178.46 32.7186 179.385 36.2903 179.385 41.0386V60.8929H169.174V42.3622C169.174 40.0931 168.817 38.3913 168.103 37.2568C167.43 36.1222 166.338 35.555 164.825 35.555C163.564 35.555 162.451 35.9962 161.484 36.8786C160.518 37.761 159.762 39.1897 159.215 41.1646C158.669 43.1395 158.396 45.7868 158.396 49.1064V60.8929H148.185ZM205.701 61.7753C202.55 61.7753 199.903 61.3341 197.76 60.4517C195.659 59.5273 193.957 58.2877 192.654 56.7329C191.351 55.1362 190.406 53.3293 189.818 51.3124C189.272 49.2954 188.998 47.1734 188.998 44.9464C188.998 42.5513 189.293 40.2612 189.881 38.0762C190.511 35.8911 191.457 33.9582 192.717 32.2774C194.02 30.5546 195.68 29.21 197.696 28.2435C199.755 27.2351 202.214 26.7308 205.071 26.7308C207.928 26.7308 210.365 27.2351 212.382 28.2435C214.441 29.21 216.08 30.5756 217.299 32.3405C218.517 34.1053 219.295 36.1433 219.631 38.4543C220.009 40.7654 219.967 43.2656 219.505 45.9549L195.364 46.333V40.7864L211.689 40.4713L210.365 43.6858C210.618 41.7529 210.576 40.1351 210.239 38.8325C209.945 37.4879 209.378 36.4794 208.538 35.8071C207.697 35.0928 206.542 34.7356 205.071 34.7356C203.516 34.7356 202.277 35.1348 201.352 35.9332C200.428 36.7315 199.776 37.8661 199.398 39.3368C199.02 40.7654 198.831 42.4672 198.831 44.4422C198.831 47.8458 199.398 50.3249 200.533 51.8797C201.667 53.4344 203.411 54.2118 205.764 54.2118C206.773 54.2118 207.613 54.0857 208.285 53.8336C208.958 53.5815 209.504 53.2243 209.924 52.7621C210.344 52.2578 210.639 51.6696 210.807 50.9972C210.975 50.2829 211.038 49.4845 210.996 48.6021L220.324 49.1064C220.45 50.493 220.303 51.9217 219.883 53.3924C219.505 54.8631 218.769 56.2287 217.677 57.4893C216.584 58.7499 215.051 59.7794 213.076 60.5778C211.143 61.3761 208.685 61.7753 205.701 61.7753ZM230.161 60.8929V42.8034V27.6132H238.985V40.8495H239.489C239.741 37.3198 240.224 34.5465 240.939 32.5296C241.695 30.4706 242.62 29.0209 243.712 28.1805C244.847 27.2981 246.107 26.8569 247.494 26.8569C248.25 26.8569 249.028 26.9619 249.826 27.172C250.666 27.3821 251.486 27.7183 252.284 28.1805L251.78 39.5258C250.855 38.9796 249.952 38.5804 249.07 38.3283C248.187 38.0341 247.347 37.8871 246.548 37.8871C245.204 37.8871 244.069 38.2653 243.145 39.0216C242.22 39.778 241.506 40.8915 241.002 42.3622C240.54 43.8329 240.308 45.6187 240.308 47.7197V60.8929H230.161Z" fill="#86B0FD"/>
<path d="M311.026 59.984V25.7073H321.543V59.984H311.026Z" fill="#86B0FD"/>
<path d="M279.257 60.8929C277.526 60.8929 275.881 60.59 274.323 59.984C272.765 59.3781 271.489 58.4044 270.493 57.0627C269.498 55.6778 269 53.8385 269 51.5447C269 49.424 269.411 47.7145 270.233 46.4162C271.056 45.0745 272.159 44.0142 273.544 43.2352C274.929 42.4129 276.444 41.807 278.089 41.4175C279.733 40.9847 281.356 40.6168 282.957 40.3139C285.208 39.8811 286.896 39.5349 288.021 39.2752C289.146 39.0155 289.904 38.7126 290.293 38.3663C290.726 38.0201 290.942 37.544 290.942 36.9381C290.942 35.6831 290.466 34.7309 289.514 34.0817C288.605 33.4326 287.393 33.108 285.879 33.108C284.927 33.108 283.974 33.2811 283.022 33.6273C282.07 33.9735 281.291 34.6011 280.685 35.5099C280.079 36.3755 279.798 37.6306 279.841 39.2752L270.493 38.626C270.407 35.8995 270.818 33.649 271.727 31.8745C272.635 30.0568 273.869 28.6503 275.427 27.6549C277.028 26.6162 278.759 25.8804 280.62 25.4476C282.525 25.0149 284.407 24.7985 286.268 24.7985C289.687 24.7985 292.5 25.4476 294.708 26.746C296.915 28.0011 298.538 29.8404 299.576 32.264C300.658 34.6444 301.199 37.544 301.199 40.9631V47.0654C301.199 48.4936 301.199 49.9434 301.199 51.4149C301.199 52.8431 301.199 54.2713 301.199 55.6995C301.199 57.1277 301.199 58.5559 301.199 59.984H292.111C292.111 58.426 292.111 56.8463 292.111 55.245C292.111 53.6437 292.111 51.9559 292.111 50.1814H291.721C291.548 52.129 290.899 53.925 289.774 55.5696C288.692 57.1709 287.242 58.4693 285.424 59.4647C283.65 60.4168 281.594 60.8929 279.257 60.8929ZM283.607 53.2326C284.342 53.2326 285.121 53.1027 285.944 52.8431C286.809 52.5401 287.61 52.064 288.346 51.4149C289.125 50.7657 289.752 49.8785 290.228 48.7532C290.704 47.5847 290.942 46.1565 290.942 44.4686V42.9106L292.695 42.7158C292.349 43.2785 291.765 43.7329 290.942 44.0791C290.163 44.4254 289.276 44.7067 288.281 44.9231C287.285 45.0962 286.268 45.2909 285.23 45.5073C284.234 45.6804 283.304 45.9401 282.438 46.2863C281.572 46.5893 280.858 47.0221 280.296 47.5847C279.776 48.104 279.517 48.8398 279.517 49.7919C279.517 50.9172 279.906 51.7827 280.685 52.3886C281.508 52.9513 282.481 53.2326 283.607 53.2326Z" fill="#86B0FD"/>
<path d="M313.771 4.85048C314.757 2.7513 315.25 1.70171 316.049 1.70171C316.849 1.70171 317.342 2.7513 318.328 4.85048L318.758 5.76661C319.077 6.44466 319.236 6.78368 319.495 7.04308C319.755 7.30248 320.094 7.46174 320.772 7.78025L321.688 8.2106C323.787 9.19669 324.837 9.68974 324.837 10.4891C324.837 11.2885 323.787 11.7815 321.688 12.7676L320.772 13.198C320.094 13.5165 319.755 13.6758 319.495 13.9352C319.236 14.1946 319.077 14.5336 318.758 15.2116L318.328 16.1278C317.342 18.2269 316.849 19.2765 316.049 19.2765C315.25 19.2765 314.757 18.2269 313.771 16.1278L313.341 15.2116C313.022 14.5336 312.863 14.1946 312.603 13.9352C312.344 13.6758 312.005 13.5165 311.327 13.198L310.411 12.7676C308.312 11.7815 307.262 11.2885 307.262 10.4891C307.262 9.68974 308.312 9.19669 310.411 8.2106L311.327 7.78025C312.005 7.46174 312.344 7.30248 312.603 7.04308C312.863 6.78368 313.022 6.44466 313.341 5.76661L313.771 4.85048Z" fill="#86B0FD"/>
</svg>
