<svg width="431" height="111" viewBox="0 0 431 111" fill="none" xmlns="http://www.w3.org/2000/svg">
<path d="M26.213 109.773C29.2121 109.773 31.6435 107.342 31.6437 104.343V39.574C31.6437 38.5285 32.0247 37.533 32.7257 36.7625C37.1803 31.8677 52.6581 14.8641 63.6368 2.83966L63.5372 52.868C63.5324 55.1802 61.6561 57.0525 59.3439 57.0526H45.3712C42.372 57.0526 39.9406 59.484 39.9406 62.4832V72.2137C39.9406 76.7705 45.2141 79.3012 48.7687 76.45L67.9962 61.0272C68.5876 60.5528 69.3096 60.2488 70.0841 60.1082C84.027 57.5789 94.6056 45.3907 94.6056 30.7156C94.6054 14.2095 81.1825 0.621034 64.6671 0.620911H36.0275C33.0477 0.621053 30.6382 3.02082 30.6085 5.99689L30.3448 32.3895C30.3217 34.6885 28.4516 36.5396 26.1525 36.5399H6.04895C3.04999 36.54 0.618471 38.9716 0.618286 41.9705V104.343C0.618447 107.342 3.04997 109.773 6.04895 109.773H26.213Z" fill="#2C67D6" stroke="#2C67D6" stroke-width="1.23747"/>
<path d="M334.181 78.1861V59.5525V43.9055H343.271V57.5398H343.79C344.05 53.904 344.547 51.0473 345.283 48.9697C346.062 46.8488 347.015 45.3555 348.14 44.4898C349.309 43.5809 350.607 43.1264 352.035 43.1264C352.815 43.1264 353.615 43.2346 354.438 43.451C355.303 43.6674 356.147 44.0137 356.97 44.4898L356.45 56.1764C355.498 55.6137 354.568 55.2025 353.659 54.9428C352.75 54.6398 351.884 54.4883 351.062 54.4883C349.676 54.4883 348.508 54.8779 347.556 55.657C346.603 56.4361 345.868 57.5831 345.348 59.098C344.872 60.613 344.634 62.4525 344.634 64.6167V78.1861H334.181Z" fill="#1A1C1D"/>
<path d="M310.934 79.0951C307.687 79.0951 304.961 78.6406 302.753 77.7316C300.589 76.7794 298.836 75.5025 297.494 73.901C296.152 72.2563 295.178 70.3951 294.572 68.3175C294.01 66.2399 293.728 64.054 293.728 61.76C293.728 59.2928 294.031 56.9339 294.637 54.6831C295.287 52.4324 296.261 50.4414 297.559 48.71C298.901 46.9354 300.611 45.5503 302.688 44.5548C304.809 43.516 307.341 42.9966 310.284 42.9966C313.228 42.9966 315.738 43.516 317.816 44.5548C319.937 45.5503 321.625 46.957 322.88 48.7749C324.135 50.5928 324.936 52.6921 325.282 55.0727C325.672 57.4533 325.628 60.0287 325.152 62.7988L300.286 63.1884V57.4749L317.102 57.1503L315.738 60.4615C315.998 58.4705 315.955 56.804 315.608 55.4622C315.305 54.0772 314.721 53.0384 313.855 52.3458C312.99 51.61 311.799 51.2421 310.284 51.2421C308.683 51.2421 307.406 51.6533 306.454 52.4757C305.502 53.2981 304.831 54.4667 304.441 55.9817C304.052 57.4533 303.857 59.2063 303.857 61.2406C303.857 64.7466 304.441 67.3003 305.61 68.9018C306.778 70.5033 308.575 71.304 310.999 71.304C312.037 71.304 312.903 71.1742 313.596 70.9145C314.288 70.6548 314.851 70.2869 315.284 69.8107C315.716 69.2913 316.019 68.6854 316.193 67.9928C316.366 67.257 316.431 66.4346 316.387 65.5257L325.996 66.0451C326.126 67.4734 325.975 68.9451 325.542 70.46C325.152 71.9749 324.395 73.3816 323.269 74.6801C322.144 75.9787 320.564 77.0391 318.53 77.8615C316.539 78.6839 314.007 79.0951 310.934 79.0951Z" fill="#1A1C1D"/>
<path d="M253.635 78.1861V58.7734V43.9055H262.53V57.8645H263.05C263.309 54.4884 263.872 51.7182 264.738 49.554C265.603 47.3466 266.837 45.7018 268.438 44.6197C270.04 43.5376 272.074 42.9966 274.541 42.9966C278.264 42.9966 281.056 44.2302 282.917 46.6973C284.821 49.1645 285.774 52.8436 285.774 57.7346V78.1861H275.256V59.0981C275.256 56.7608 274.888 55.0078 274.152 53.8391C273.459 52.6705 272.334 52.0861 270.776 52.0861C269.477 52.0861 268.33 52.5406 267.335 53.4496C266.339 54.3585 265.56 55.8302 264.997 57.8645C264.435 59.8988 264.153 62.6257 264.153 66.0451V78.1861H253.635Z" fill="#1A1C1D"/>
<path d="M212.634 78.1861V58.7734V43.9055H221.528V57.8645H222.048C222.308 54.4884 222.87 51.7182 223.736 49.554C224.602 47.3466 225.835 45.7018 227.437 44.6197C229.038 43.5376 231.072 42.9966 233.54 42.9966C237.262 42.9966 240.054 44.2302 241.915 46.6973C243.819 49.1645 244.772 52.8436 244.772 57.7346V78.1861H234.254V59.0981C234.254 56.7608 233.886 55.0078 233.15 53.8391C232.458 52.6705 231.332 52.0861 229.774 52.0861C228.475 52.0861 227.328 52.5406 226.333 53.4496C225.337 54.3585 224.558 55.8302 223.996 57.8645C223.433 59.8988 223.152 62.6257 223.152 66.0451V78.1861H212.634Z" fill="#1A1C1D"/>
<path d="M181.861 79.0951C180.13 79.0951 178.485 78.7921 176.927 78.1861C175.369 77.5801 174.092 76.6063 173.096 75.2645C172.101 73.8794 171.603 72.0399 171.603 69.7458C171.603 67.6249 172.014 65.9152 172.836 64.6167C173.659 63.2749 174.763 62.2145 176.148 61.4354C177.533 60.613 179.048 60.007 180.692 59.6175C182.337 59.1846 183.96 58.8167 185.562 58.5137C187.813 58.0809 189.501 57.7346 190.626 57.4749C191.751 57.2152 192.509 56.9122 192.898 56.566C193.331 56.2197 193.548 55.7436 193.548 55.1376C193.548 53.8824 193.072 52.9302 192.119 52.2809C191.21 51.6317 189.998 51.307 188.483 51.307C187.531 51.307 186.579 51.4802 185.627 51.8264C184.675 52.1727 183.895 52.8003 183.289 53.7093C182.683 54.5749 182.402 55.8302 182.445 57.4749L173.096 56.8257C173.01 54.0988 173.421 51.8481 174.33 50.0734C175.239 48.2555 176.472 46.8488 178.031 45.8533C179.632 44.8145 181.363 44.0787 183.225 43.6458C185.129 43.213 187.012 42.9966 188.873 42.9966C192.292 42.9966 195.106 43.6458 197.313 44.9443C199.521 46.1996 201.144 48.0391 202.183 50.463C203.265 52.8436 203.806 55.7436 203.806 59.163V65.266C203.806 66.6943 203.806 68.1443 203.806 69.616C203.806 71.0443 203.806 72.4727 203.806 73.901C203.806 75.3294 203.806 76.7578 203.806 78.1861H194.716C194.716 76.6279 194.716 75.0481 194.716 73.4466C194.716 71.8451 194.716 70.157 194.716 68.3824H194.327C194.154 70.3302 193.504 72.1264 192.379 73.7712C191.297 75.3727 189.847 76.6712 188.029 77.6667C186.254 78.619 184.198 79.0951 181.861 79.0951ZM186.211 71.4339C186.947 71.4339 187.726 71.304 188.548 71.0443C189.414 70.7413 190.215 70.2652 190.951 69.616C191.73 68.9667 192.357 68.0794 192.833 66.954C193.31 65.7854 193.548 64.357 193.548 62.669V61.1108L195.301 60.916C194.954 61.4787 194.37 61.9331 193.548 62.2794C192.769 62.6257 191.881 62.907 190.886 63.1234C189.89 63.2966 188.873 63.4913 187.834 63.7078C186.839 63.8809 185.908 64.1406 185.042 64.4869C184.177 64.7899 183.463 65.2227 182.9 65.7854C182.381 66.3048 182.121 67.0406 182.121 67.9928C182.121 69.1182 182.51 69.9839 183.289 70.5899C184.112 71.1525 185.086 71.4339 186.211 71.4339Z" fill="#1A1C1D"/>
<path d="M153.075 78.1861V32.7383H163.593V78.1861H153.075Z" fill="#1A1C1D"/>
<path d="M111.122 87.7951V56.1115V43.9055H120.341V54.4884H120.796C121.272 51.9346 121.986 49.8137 122.938 48.1257C123.89 46.3943 125.102 45.1175 126.574 44.2951C128.089 43.4294 129.907 42.9966 132.028 42.9966C134.711 42.9966 136.984 43.6891 138.845 45.0742C140.749 46.416 142.178 48.4287 143.13 51.1123C144.126 53.7525 144.623 57.0205 144.623 60.916C144.623 65.1145 144.061 68.5555 142.935 71.2391C141.853 73.9227 140.36 75.9137 138.455 77.2122C136.551 78.4675 134.387 79.0951 131.963 79.0951C130.015 79.0951 128.284 78.6839 126.769 77.8615C125.297 77.0391 124.064 75.7839 123.068 74.0958C122.116 72.3645 121.445 70.2003 121.055 67.6033H120.471C120.687 68.8585 120.882 70.1787 121.055 71.5637C121.229 72.9055 121.358 74.2473 121.445 75.5891C121.575 76.8876 121.64 78.1428 121.64 79.3548V87.7951H111.122ZM128.002 70.46C129.387 70.46 130.513 70.0272 131.379 69.1615C132.287 68.2958 132.937 67.1705 133.326 65.7854C133.759 64.357 133.976 62.8637 133.976 61.3055C133.976 59.5742 133.737 58.016 133.261 56.6309C132.829 55.2025 132.158 54.0772 131.249 53.2548C130.383 52.3891 129.301 51.9563 128.002 51.9563C127.18 51.9563 126.379 52.1511 125.6 52.5406C124.821 52.8869 124.129 53.4496 123.523 54.2287C122.917 54.9645 122.419 55.9167 122.029 57.0854C121.683 58.254 121.51 59.6608 121.51 61.3055V61.6951C121.51 62.9936 121.64 64.119 121.899 65.0712C122.159 66.0234 122.505 66.8458 122.938 67.5384C123.371 68.2309 123.869 68.7936 124.432 69.2264C124.994 69.6593 125.579 69.9839 126.185 70.2003C126.79 70.3734 127.396 70.46 128.002 70.46Z" fill="#1A1C1D"/>
<path d="M415.251 78.1861V43.9055H425.769V78.1861H415.251Z" fill="#1A1C1D"/>
<path d="M384.479 79.0951C382.747 79.0951 381.102 78.7921 379.544 78.1861C377.986 77.5801 376.709 76.6063 375.714 75.2645C374.718 73.8794 374.22 72.0399 374.22 69.7458C374.22 67.6249 374.632 65.9152 375.454 64.6167C376.276 63.2749 377.38 62.2145 378.765 61.4354C380.15 60.613 381.665 60.007 383.31 59.6175C384.955 59.1846 386.578 58.8167 388.179 58.5137C390.43 58.0809 392.118 57.7346 393.244 57.4749C394.369 57.2152 395.126 56.9122 395.516 56.566C395.949 56.2197 396.165 55.7436 396.165 55.1376C396.165 53.8824 395.689 52.9302 394.737 52.2809C393.828 51.6317 392.616 51.307 391.101 51.307C390.149 51.307 389.197 51.4802 388.244 51.8264C387.292 52.1727 386.513 52.8003 385.907 53.7093C385.301 54.5749 385.02 55.8302 385.063 57.4749L375.714 56.8257C375.627 54.0988 376.038 51.8481 376.947 50.0734C377.856 48.2555 379.09 46.8488 380.648 45.8533C382.25 44.8145 383.981 44.0787 385.842 43.6458C387.747 43.213 389.629 42.9966 391.491 42.9966C394.91 42.9966 397.723 43.6458 399.931 44.9443C402.138 46.1996 403.761 48.0391 404.8 50.463C405.882 52.8436 406.423 55.7436 406.423 59.163V65.266C406.423 66.6943 406.423 68.1443 406.423 69.616C406.423 71.0443 406.423 72.4727 406.423 73.901C406.423 75.3294 406.423 76.7578 406.423 78.1861H397.334C397.334 76.6279 397.334 75.0481 397.334 73.4466C397.334 71.8451 397.334 70.157 397.334 68.3824H396.944C396.771 70.3302 396.122 72.1264 394.997 73.7712C393.914 75.3727 392.464 76.6712 390.647 77.6667C388.872 78.619 386.816 79.0951 384.479 79.0951ZM388.829 71.4339C389.564 71.4339 390.344 71.304 391.166 71.0443C392.032 70.7413 392.832 70.2652 393.568 69.616C394.347 68.9667 394.975 68.0794 395.451 66.954C395.927 65.7854 396.165 64.357 396.165 62.669V61.1108L397.918 60.916C397.572 61.4787 396.988 61.9331 396.165 62.2794C395.386 62.6257 394.499 62.907 393.503 63.1234C392.508 63.2966 391.491 63.4913 390.452 63.7078C389.456 63.8809 388.526 64.1406 387.66 64.4869C386.794 64.7899 386.08 65.2227 385.517 65.7854C384.998 66.3048 384.738 67.0406 384.738 67.9928C384.738 69.1182 385.128 69.9839 385.907 70.5899C386.729 71.1525 387.703 71.4339 388.829 71.4339Z" fill="#1A1C1D"/>
<path d="M417.996 24.0468C418.982 21.9474 419.475 20.8977 420.275 20.8977C421.074 20.8977 421.567 21.9474 422.554 24.0468L422.984 24.9631C423.303 25.6412 423.462 25.9802 423.721 26.2397C423.981 26.4991 424.32 26.6584 424.998 26.9769L425.914 27.4073C428.014 28.3935 429.063 28.8866 429.063 29.6861C429.063 30.4856 428.014 30.9787 425.914 31.9649L424.998 32.3953C424.32 32.7138 423.981 32.8731 423.721 33.1325C423.462 33.392 423.303 33.731 422.984 34.4091L422.554 35.3254C421.567 37.4248 421.074 38.4745 420.275 38.4745C419.475 38.4745 418.982 37.4248 417.996 35.3254L417.566 34.4091C417.247 33.731 417.088 33.392 416.828 33.1325C416.569 32.8731 416.23 32.7138 415.552 32.3953L414.636 31.9649C412.536 30.9787 411.486 30.4856 411.486 29.6861C411.486 28.8866 412.536 28.3935 414.636 27.4073L415.552 26.9769C416.23 26.6584 416.569 26.4991 416.828 26.2397C417.088 25.9802 417.247 25.6412 417.566 24.9631L417.996 24.0468Z" fill="#2C67D6"/>
</svg>
