<svg width="109" height="127" viewBox="0 0 109 127" fill="none" xmlns="http://www.w3.org/2000/svg">
<path d="M29.3525 126.41C32.7118 126.41 35.4346 123.686 35.4346 120.327V45.2275C35.4347 43.8377 35.9462 42.5067 36.8809 41.4795C42.2638 35.5646 60.8627 15.1321 73.6328 1.14844L73.5137 60.3906C73.5075 63.4694 71.0095 65.9619 67.9307 65.9619H52.1201C48.7607 65.9619 46.0371 68.6856 46.0371 72.0449V82.668C46.0374 87.7718 51.9445 90.6057 55.9258 87.4121L77.8906 69.793C78.6813 69.1587 79.6375 68.7602 80.6465 68.5752C96.631 65.6444 108.75 51.6589 108.75 34.8252C108.75 15.8915 93.3758 0.303465 74.4492 0.253906L74.4512 0.251953H41.2441C37.9081 0.251953 35.2013 2.93831 35.168 6.27344L34.8662 36.5508C34.8355 39.6119 32.3454 42.0769 29.2842 42.0771H6.33301C2.97364 42.0771 0.25 44.8008 0.25 48.1602V120.327C0.25 123.687 2.97364 126.41 6.33301 126.41H29.3525Z" fill="#004AD7" stroke="#004AD7" stroke-width="0.5"/>
</svg>
