<svg width="435" height="111" viewBox="0 0 435 111" fill="none" xmlns="http://www.w3.org/2000/svg">
<path d="M26.213 109.773C29.2121 109.773 31.6435 107.342 31.6437 104.343V39.574C31.6437 38.5285 32.0247 37.533 32.7257 36.7625C37.1803 31.8677 52.6581 14.8641 63.6368 2.83965L63.5372 52.868C63.5324 55.1802 61.6561 57.0524 59.3439 57.0525H45.3712C42.372 57.0525 39.9406 59.484 39.9406 62.4832V72.2137C39.9406 76.7705 45.2141 79.3012 48.7687 76.45L67.9962 61.0271C68.5876 60.5528 69.3096 60.2487 70.0841 60.1082C84.027 57.5789 94.6056 45.3906 94.6056 30.7156C94.6054 14.2095 81.1825 0.621019 64.6671 0.620895H36.0275C33.0477 0.621038 30.6382 3.02081 30.6085 5.99687L30.3448 32.3895C30.3217 34.6885 28.4516 36.5396 26.1525 36.5398H6.04895C3.04999 36.54 0.618471 38.9715 0.618286 41.9705V104.343C0.618447 107.342 3.04997 109.773 6.04895 109.773H26.213Z" fill="#1A1C1D" stroke="#1A1C1D" stroke-width="1.23747"/>
<path d="M338.181 78.1861V59.5525V43.9055H347.271V57.5398H347.79C348.05 53.904 348.547 51.0473 349.283 48.9697C350.062 46.8488 351.015 45.3555 352.14 44.4898C353.309 43.5808 354.607 43.1264 356.035 43.1264C356.815 43.1264 357.615 43.2346 358.438 43.451C359.303 43.6674 360.147 44.0137 360.97 44.4898L360.45 56.1764C359.498 55.6137 358.568 55.2025 357.659 54.9428C356.75 54.6398 355.884 54.4883 355.062 54.4883C353.676 54.4883 352.508 54.8779 351.556 55.657C350.603 56.4361 349.868 57.5831 349.348 59.098C348.872 60.6129 348.634 62.4525 348.634 64.6167V78.1861H338.181Z" fill="#1A1C1D"/>
<path d="M314.934 79.095C311.687 79.095 308.961 78.6405 306.753 77.7316C304.589 76.7793 302.836 75.5025 301.494 73.901C300.152 72.2562 299.178 70.395 298.572 68.3174C298.01 66.2398 297.728 64.054 297.728 61.7599C297.728 59.2928 298.031 56.9338 298.637 54.6831C299.287 52.4323 300.261 50.4413 301.559 48.71C302.901 46.9353 304.611 45.5503 306.688 44.5547C308.809 43.5159 311.341 42.9965 314.284 42.9965C317.228 42.9965 319.738 43.5159 321.816 44.5547C323.937 45.5503 325.625 46.957 326.88 48.7749C328.135 50.5928 328.936 52.692 329.282 55.0726C329.672 57.4532 329.628 60.0286 329.152 62.7988L304.286 63.1883V57.4749L321.102 57.1502L319.738 60.4614C319.998 58.4704 319.955 56.804 319.608 55.4622C319.305 54.0771 318.721 53.0383 317.855 52.3458C316.99 51.61 315.799 51.242 314.284 51.242C312.683 51.242 311.406 51.6532 310.454 52.4756C309.502 53.298 308.831 54.4667 308.441 55.9816C308.052 57.4532 307.857 59.2062 307.857 61.2405C307.857 64.7465 308.441 67.3002 309.61 68.9017C310.778 70.5032 312.575 71.304 314.999 71.304C316.037 71.304 316.903 71.1741 317.596 70.9144C318.288 70.6547 318.851 70.2868 319.284 69.8107C319.716 69.2913 320.019 68.6853 320.193 67.9928C320.366 67.257 320.431 66.4346 320.387 65.5256L329.996 66.045C330.126 67.4734 329.975 68.945 329.542 70.4599C329.152 71.9749 328.395 73.3816 327.269 74.6801C326.144 75.9786 324.564 77.039 322.53 77.8614C320.539 78.6838 318.007 79.095 314.934 79.095Z" fill="#1A1C1D"/>
<path d="M257.635 78.1861V58.7734V43.9055H266.53V57.8644H267.05C267.309 54.4883 267.872 51.7182 268.738 49.554C269.603 47.3465 270.837 45.7017 272.438 44.6197C274.04 43.5376 276.074 42.9965 278.541 42.9965C282.264 42.9965 285.056 44.2301 286.917 46.6973C288.821 49.1644 289.774 52.8435 289.774 57.7346V78.1861H279.256V59.098C279.256 56.7607 278.888 55.0077 278.152 53.8391C277.459 52.6704 276.334 52.0861 274.776 52.0861C273.477 52.0861 272.33 52.5405 271.335 53.4495C270.339 54.3585 269.56 55.8301 268.997 57.8644C268.435 59.8988 268.153 62.6256 268.153 66.045V78.1861H257.635Z" fill="#1A1C1D"/>
<path d="M216.634 78.1861V58.7734V43.9055H225.528V57.8644H226.048C226.308 54.4883 226.87 51.7182 227.736 49.554C228.602 47.3465 229.835 45.7017 231.437 44.6197C233.038 43.5376 235.072 42.9965 237.54 42.9965C241.262 42.9965 244.054 44.2301 245.915 46.6973C247.819 49.1644 248.772 52.8435 248.772 57.7346V78.1861H238.254V59.098C238.254 56.7607 237.886 55.0077 237.15 53.8391C236.458 52.6704 235.332 52.0861 233.774 52.0861C232.475 52.0861 231.328 52.5405 230.333 53.4495C229.337 54.3585 228.558 55.8301 227.996 57.8644C227.433 59.8988 227.152 62.6256 227.152 66.045V78.1861H216.634Z" fill="#1A1C1D"/>
<path d="M185.861 79.095C184.13 79.095 182.485 78.792 180.927 78.1861C179.369 77.5801 178.092 76.6062 177.096 75.2644C176.101 73.8793 175.603 72.0398 175.603 69.7458C175.603 67.6249 176.014 65.9152 176.836 64.6167C177.659 63.2749 178.763 62.2144 180.148 61.4353C181.533 60.6129 183.048 60.007 184.692 59.6174C186.337 59.1846 187.96 58.8167 189.562 58.5137C191.813 58.0808 193.501 57.7346 194.626 57.4749C195.751 57.2152 196.509 56.9122 196.898 56.5659C197.331 56.2197 197.548 55.7435 197.548 55.1376C197.548 53.8823 197.072 52.9301 196.119 52.2808C195.21 51.6316 193.998 51.307 192.483 51.307C191.531 51.307 190.579 51.4801 189.627 51.8264C188.675 52.1726 187.895 52.8002 187.289 53.7092C186.683 54.5749 186.402 55.8301 186.445 57.4749L177.096 56.8256C177.01 54.0988 177.421 51.848 178.33 50.0734C179.239 48.2555 180.472 46.8488 182.031 45.8532C183.632 44.8144 185.363 44.0786 187.225 43.6458C189.129 43.2129 191.012 42.9965 192.873 42.9965C196.292 42.9965 199.106 43.6458 201.313 44.9443C203.521 46.1995 205.144 48.0391 206.183 50.4629C207.265 52.8435 207.806 55.7435 207.806 59.1629V65.2659C207.806 66.6943 207.806 68.1443 207.806 69.6159C207.806 71.0443 207.806 72.4726 207.806 73.901C207.806 75.3293 207.806 76.7577 207.806 78.1861H198.716C198.716 76.6278 198.716 75.048 198.716 73.4465C198.716 71.845 198.716 70.157 198.716 68.3823H198.327C198.154 70.3301 197.504 72.1264 196.379 73.7711C195.297 75.3726 193.847 76.6711 192.029 77.6667C190.254 78.6189 188.198 79.095 185.861 79.095ZM190.211 71.4338C190.947 71.4338 191.726 71.304 192.548 71.0443C193.414 70.7413 194.215 70.2652 194.951 69.6159C195.73 68.9667 196.357 68.0793 196.833 66.954C197.31 65.7853 197.548 64.357 197.548 62.6689V61.1107L199.301 60.9159C198.954 61.4786 198.37 61.9331 197.548 62.2794C196.769 62.6256 195.881 62.907 194.886 63.1234C193.89 63.2965 192.873 63.4913 191.834 63.7077C190.839 63.8808 189.908 64.1405 189.042 64.4868C188.177 64.7898 187.463 65.2226 186.9 65.7853C186.381 66.3047 186.121 67.0405 186.121 67.9928C186.121 69.1182 186.51 69.9838 187.289 70.5898C188.112 71.1525 189.086 71.4338 190.211 71.4338Z" fill="#1A1C1D"/>
<path d="M157.075 78.1861V32.7383H167.593V78.1861H157.075Z" fill="#1A1C1D"/>
<path d="M115.122 87.795V56.1114V43.9055H124.341V54.4883H124.796C125.272 51.9346 125.986 49.8137 126.938 48.1256C127.89 46.3943 129.102 45.1174 130.574 44.295C132.089 43.4294 133.907 42.9965 136.028 42.9965C138.711 42.9965 140.984 43.6891 142.845 45.0741C144.749 46.4159 146.178 48.4286 147.13 51.1122C148.126 53.7525 148.623 57.0204 148.623 60.9159C148.623 65.1144 148.061 68.5555 146.935 71.239C145.853 73.9226 144.36 75.9137 142.455 77.2122C140.551 78.4674 138.387 79.095 135.963 79.095C134.015 79.095 132.284 78.6838 130.769 77.8614C129.297 77.039 128.064 75.7838 127.068 74.0958C126.116 72.3644 125.445 70.2002 125.055 67.6032H124.471C124.687 68.8585 124.882 70.1786 125.055 71.5637C125.229 72.9055 125.358 74.2473 125.445 75.589C125.575 76.8875 125.64 78.1428 125.64 79.3547V87.795H115.122ZM132.002 70.4599C133.387 70.4599 134.513 70.0271 135.379 69.1614C136.287 68.2958 136.937 67.1704 137.326 65.7853C137.759 64.357 137.976 62.8637 137.976 61.3055C137.976 59.5741 137.737 58.0159 137.261 56.6308C136.829 55.2025 136.158 54.0771 135.249 53.2547C134.383 52.3891 133.301 51.9562 132.002 51.9562C131.18 51.9562 130.379 52.151 129.6 52.5405C128.821 52.8868 128.129 53.4495 127.523 54.2286C126.917 54.9644 126.419 55.9167 126.029 57.0853C125.683 58.254 125.51 59.6607 125.51 61.3055V61.695C125.51 62.9935 125.64 64.1189 125.899 65.0711C126.159 66.0234 126.505 66.8458 126.938 67.5383C127.371 68.2308 127.869 68.7935 128.432 69.2264C128.994 69.6592 129.579 69.9838 130.185 70.2002C130.79 70.3734 131.396 70.4599 132.002 70.4599Z" fill="#1A1C1D"/>
<path d="M419.251 78.1861V43.9055H429.769V78.1861H419.251Z" fill="#1A1C1D"/>
<path d="M388.479 79.095C386.747 79.095 385.102 78.792 383.544 78.1861C381.986 77.5801 380.709 76.6062 379.714 75.2644C378.718 73.8793 378.22 72.0398 378.22 69.7458C378.22 67.6249 378.632 65.9152 379.454 64.6167C380.276 63.2749 381.38 62.2144 382.765 61.4353C384.15 60.6129 385.665 60.007 387.31 59.6174C388.955 59.1846 390.578 58.8167 392.179 58.5137C394.43 58.0808 396.118 57.7346 397.244 57.4749C398.369 57.2152 399.126 56.9122 399.516 56.5659C399.949 56.2197 400.165 55.7435 400.165 55.1376C400.165 53.8823 399.689 52.9301 398.737 52.2808C397.828 51.6316 396.616 51.307 395.101 51.307C394.149 51.307 393.197 51.4801 392.244 51.8264C391.292 52.1726 390.513 52.8002 389.907 53.7092C389.301 54.5749 389.02 55.8301 389.063 57.4749L379.714 56.8256C379.627 54.0988 380.038 51.848 380.947 50.0734C381.856 48.2555 383.09 46.8488 384.648 45.8532C386.25 44.8144 387.981 44.0786 389.842 43.6458C391.747 43.2129 393.629 42.9965 395.491 42.9965C398.91 42.9965 401.723 43.6458 403.931 44.9443C406.138 46.1995 407.761 48.0391 408.8 50.4629C409.882 52.8435 410.423 55.7435 410.423 59.1629V65.2659C410.423 66.6943 410.423 68.1443 410.423 69.6159C410.423 71.0443 410.423 72.4726 410.423 73.901C410.423 75.3293 410.423 76.7577 410.423 78.1861H401.334C401.334 76.6278 401.334 75.048 401.334 73.4465C401.334 71.845 401.334 70.157 401.334 68.3823H400.944C400.771 70.3301 400.122 72.1264 398.997 73.7711C397.914 75.3726 396.464 76.6711 394.647 77.6667C392.872 78.6189 390.816 79.095 388.479 79.095ZM392.829 71.4338C393.564 71.4338 394.344 71.304 395.166 71.0443C396.032 70.7413 396.832 70.2652 397.568 69.6159C398.347 68.9667 398.975 68.0793 399.451 66.954C399.927 65.7853 400.165 64.357 400.165 62.6689V61.1107L401.918 60.9159C401.572 61.4786 400.988 61.9331 400.165 62.2794C399.386 62.6256 398.499 62.907 397.503 63.1234C396.508 63.2965 395.491 63.4913 394.452 63.7077C393.456 63.8808 392.526 64.1405 391.66 64.4868C390.794 64.7898 390.08 65.2226 389.517 65.7853C388.998 66.3047 388.738 67.0405 388.738 67.9928C388.738 69.1182 389.128 69.9838 389.907 70.5898C390.729 71.1525 391.703 71.4338 392.829 71.4338Z" fill="#1A1C1D"/>
<path d="M421.996 27.0468C422.982 24.9474 423.475 23.8977 424.275 23.8977C425.074 23.8977 425.567 24.9474 426.554 27.0468L426.984 27.963C427.303 28.6412 427.462 28.9802 427.721 29.2396C427.981 29.4991 428.32 29.6583 428.998 29.9769L429.914 30.4073C432.014 31.3935 433.063 31.8866 433.063 32.6861C433.063 33.4855 432.014 33.9786 429.914 34.9648L428.998 35.3952C428.32 35.7138 427.981 35.8731 427.721 36.1325C427.462 36.3919 427.303 36.731 426.984 37.4091L426.554 38.3253C425.567 40.4247 425.074 41.4745 424.275 41.4745C423.475 41.4745 422.982 40.4247 421.996 38.3253L421.566 37.4091C421.247 36.731 421.088 36.3919 420.828 36.1325C420.569 35.8731 420.23 35.7138 419.552 35.3952L418.636 34.9648C416.536 33.9786 415.486 33.4855 415.486 32.6861C415.486 31.8866 416.536 31.3935 418.636 30.4073L419.552 29.9769C420.23 29.6583 420.569 29.4991 420.828 29.2396C421.088 28.9802 421.247 28.6412 421.566 27.963L421.996 27.0468Z" fill="#1A1C1D"/>
</svg>
