<svg width="444" height="115" viewBox="0 0 444 115" fill="none" xmlns="http://www.w3.org/2000/svg">
<path d="M27.3286 113.517C30.2672 113.517 32.6499 111.134 32.6499 108.196V40.7897C32.6499 39.7646 33.0209 38.7922 33.7075 38.0377C38.2295 33.0688 54.4061 15.2974 65.8325 2.78284L65.729 54.9176C65.7243 57.1831 63.8861 59.017 61.6206 59.0172H46.6265C43.688 59.0173 41.3062 61.4 41.3062 64.3385V75.2301C41.3062 79.6948 46.4729 82.1741 49.9556 79.3805L70.3472 63.024C70.9268 62.5593 71.6342 62.2612 72.3921 62.1256C86.844 59.5402 97.8187 46.9224 97.8188 31.7242C97.8188 14.6582 83.9399 0.608115 66.8647 0.608032H36.9565C34.0365 0.608032 31.678 2.96012 31.6489 5.87561L31.3716 33.7194C31.3491 35.9722 29.5161 37.7867 27.2632 37.7867H5.92725C2.98877 37.7867 0.6061 40.1686 0.605957 43.1071V108.196C0.605957 111.134 2.98868 113.517 5.92725 113.517H27.3286Z" fill="#0059FF" stroke="#0059FF" stroke-width="1.21244"/>
<path d="M119.218 88.4644V57.706V45.8564H128.168V56.1302H128.61C129.072 53.6511 129.765 51.5921 130.69 49.9533C131.614 48.2725 132.791 47.0329 134.219 46.2346C135.69 45.3942 137.455 44.974 139.514 44.974C142.119 44.974 144.325 45.6463 146.132 46.9909C147.981 48.2935 149.367 50.2475 150.292 52.8527C151.258 55.4159 151.741 58.5884 151.741 62.3702C151.741 66.4461 151.195 69.7866 150.103 72.3919C149.052 74.9971 147.603 76.93 145.754 78.1906C143.905 79.4092 141.804 80.0185 139.451 80.0185C137.56 80.0185 135.879 79.6193 134.408 78.8209C132.98 78.0225 131.782 76.8039 130.816 75.1652C129.891 73.4844 129.24 71.3834 128.862 68.8622H128.294C128.505 70.0808 128.694 71.3624 128.862 72.707C129.03 74.0096 129.156 75.3122 129.24 76.6149C129.366 77.8755 129.429 79.094 129.429 80.2706V88.4644H119.218ZM135.606 71.6355C136.951 71.6355 138.043 71.2153 138.883 70.3749C139.766 69.5345 140.396 68.442 140.774 67.0974C141.195 65.7107 141.405 64.261 141.405 62.7483C141.405 61.0675 141.173 59.5548 140.711 58.2102C140.291 56.8235 139.64 55.731 138.757 54.9327C137.917 54.0923 136.866 53.6721 135.606 53.6721C134.808 53.6721 134.03 53.8612 133.274 54.2393C132.517 54.5755 131.845 55.1217 131.257 55.8781C130.669 56.5924 130.185 57.5169 129.807 58.6514C129.471 59.7859 129.303 61.1516 129.303 62.7483V63.1265C129.303 64.3871 129.429 65.4796 129.681 66.4041C129.933 67.3285 130.269 68.1269 130.69 68.7992C131.11 69.4715 131.593 70.0178 132.139 70.438C132.686 70.8582 133.253 71.1733 133.841 71.3834C134.429 71.5515 135.018 71.6355 135.606 71.6355ZM161.837 79.136V35.0153H172.048V79.136H161.837ZM191.674 80.0185C189.993 80.0185 188.396 79.7243 186.883 79.136C185.371 78.5478 184.131 77.6023 183.165 76.2997C182.198 74.9551 181.715 73.1692 181.715 70.9422C181.715 68.8832 182.114 67.2234 182.913 65.9628C183.711 64.6602 184.782 63.6308 186.127 62.8744C187.472 62.076 188.942 61.4877 190.539 61.1096C192.136 60.6894 193.712 60.3322 195.266 60.0381C197.451 59.6179 199.09 59.2817 200.183 59.0296C201.275 58.7775 202.011 58.4833 202.389 58.1472C202.809 57.811 203.019 57.3488 203.019 56.7605C203.019 55.5419 202.557 54.6175 201.632 53.9872C200.75 53.3569 199.573 53.0418 198.103 53.0418C197.178 53.0418 196.254 53.2098 195.329 53.546C194.405 53.8822 193.649 54.4914 193.06 55.3739C192.472 56.2143 192.199 57.4328 192.241 59.0296L183.165 58.3993C183.081 55.752 183.48 53.567 184.362 51.8442C185.245 50.0794 186.442 48.7137 187.955 47.7473C189.51 46.7388 191.19 46.0245 192.997 45.6043C194.846 45.1841 196.674 44.974 198.481 44.974C201.8 44.974 204.532 45.6043 206.675 46.8649C208.818 48.0834 210.394 49.8693 211.402 52.2224C212.452 54.5335 212.978 57.3488 212.978 60.6684V66.5931C212.978 67.9798 212.978 69.3875 212.978 70.8161C212.978 72.2028 212.978 73.5894 212.978 74.9761C212.978 76.3627 212.978 77.7494 212.978 79.136H204.154C204.154 77.6233 204.154 76.0896 204.154 74.5349C204.154 72.9802 204.154 71.3414 204.154 69.6186H203.775C203.607 71.5095 202.977 73.2533 201.885 74.85C200.834 76.4048 199.426 77.6654 197.662 78.6318C195.939 79.5562 193.943 80.0185 191.674 80.0185ZM195.897 72.581C196.611 72.581 197.367 72.4549 198.166 72.2028C199.006 71.9086 199.784 71.4464 200.498 70.8161C201.254 70.1858 201.864 69.3244 202.326 68.2319C202.788 67.0974 203.019 65.7107 203.019 64.072V62.5592L204.721 62.3702C204.385 62.9164 203.817 63.3576 203.019 63.6938C202.263 64.0299 201.401 64.3031 200.435 64.5132C199.468 64.6812 198.481 64.8703 197.472 65.0804C196.506 65.2485 195.603 65.5006 194.762 65.8368C193.922 66.1309 193.228 66.5511 192.682 67.0974C192.178 67.6016 191.926 68.316 191.926 69.2404C191.926 70.3329 192.304 71.1733 193.06 71.7616C193.859 72.3078 194.804 72.581 195.897 72.581ZM223.439 79.136V60.2902V45.8564H232.074V59.4078H232.578C232.83 56.1302 233.376 53.441 234.217 51.34C235.057 49.197 236.255 47.6002 237.809 46.5497C239.364 45.4992 241.339 44.974 243.734 44.974C247.348 44.974 250.058 46.1715 251.865 48.5667C253.714 50.9618 254.638 54.5335 254.638 59.2817V79.136H244.428V60.6053C244.428 58.3363 244.07 56.6345 243.356 55.4999C242.684 54.3654 241.591 53.7981 240.079 53.7981C238.818 53.7981 237.704 54.2393 236.738 55.1217C235.771 56.0042 235.015 57.4328 234.469 59.4078C233.923 61.3827 233.649 64.0299 233.649 67.3495V79.136H223.439ZM265.134 79.136V60.2902V45.8564H273.769V59.4078H274.274C274.526 56.1302 275.072 53.441 275.912 51.34C276.753 49.197 277.95 47.6002 279.505 46.5497C281.06 45.4992 283.035 44.974 285.43 44.974C289.044 44.974 291.754 46.1715 293.561 48.5667C295.41 50.9618 296.334 54.5335 296.334 59.2817V79.136H286.123V60.6053C286.123 58.3363 285.766 56.6345 285.052 55.4999C284.379 54.3654 283.287 53.7981 281.774 53.7981C280.514 53.7981 279.4 54.2393 278.434 55.1217C277.467 56.0042 276.711 57.4328 276.164 59.4078C275.618 61.3827 275.345 64.0299 275.345 67.3495V79.136H265.134ZM322.65 80.0185C319.499 80.0185 316.852 79.5773 314.709 78.6948C312.608 77.7704 310.906 76.5308 309.603 74.9761C308.301 73.3793 307.355 71.5725 306.767 69.5555C306.221 67.5386 305.947 65.4166 305.947 63.1895C305.947 60.7944 306.242 58.5043 306.83 56.3193C307.46 54.1343 308.406 52.2014 309.666 50.5206C310.969 48.7978 312.629 47.4531 314.646 46.4867C316.705 45.4782 319.163 44.974 322.02 44.974C324.877 44.974 327.315 45.4782 329.331 46.4867C331.39 47.4531 333.029 48.8188 334.248 50.5836C335.466 52.3484 336.244 54.3864 336.58 56.6975C336.958 59.0086 336.916 61.5088 336.454 64.198L312.313 64.5762V59.0296L328.638 58.7144L327.315 61.929C327.567 59.996 327.525 58.3783 327.188 57.0757C326.894 55.731 326.327 54.7226 325.487 54.0502C324.646 53.3359 323.491 52.9787 322.02 52.9787C320.465 52.9787 319.226 53.3779 318.301 54.1763C317.377 54.9747 316.726 56.1092 316.347 57.5799C315.969 59.0086 315.78 60.7104 315.78 62.6853C315.78 66.0889 316.347 68.5681 317.482 70.1228C318.616 71.6775 320.36 72.4549 322.713 72.4549C323.722 72.4549 324.562 72.3288 325.235 72.0767C325.907 71.8246 326.453 71.4674 326.873 71.0052C327.294 70.501 327.588 69.9127 327.756 69.2404C327.924 68.5261 327.987 67.7277 327.945 66.8453L337.273 67.3495C337.399 68.7362 337.252 70.1648 336.832 71.6355C336.454 73.1062 335.718 74.4719 334.626 75.7324C333.533 76.993 332 78.0225 330.025 78.8209C328.092 79.6193 325.634 80.0185 322.65 80.0185ZM347.11 79.136V61.0465V45.8564H355.934V59.0926H356.438C356.69 55.563 357.174 52.7896 357.888 50.7727C358.644 48.7137 359.569 47.264 360.661 46.4237C361.796 45.5412 363.056 45.1 364.443 45.1C365.199 45.1 365.977 45.2051 366.775 45.4152C367.615 45.6253 368.435 45.9614 369.233 46.4237L368.729 57.769C367.805 57.2227 366.901 56.8235 366.019 56.5714C365.136 56.2773 364.296 56.1302 363.497 56.1302C362.153 56.1302 361.018 56.5084 360.094 57.2648C359.169 58.0211 358.455 59.1346 357.951 60.6053C357.489 62.076 357.258 63.8619 357.258 65.9628V79.136H347.11Z" fill="#1A1C1D"/>
<path d="M428.474 79.2729V44.9962H438.991V79.2729H428.474Z" fill="#1A1C1D"/>
<path d="M396.705 80.1818C394.974 80.1818 393.33 79.8788 391.772 79.2729C390.213 78.667 388.937 77.6933 387.941 76.3516C386.946 74.9667 386.448 73.1274 386.448 70.8336C386.448 68.7129 386.859 67.0034 387.682 65.7051C388.504 64.3634 389.608 63.3031 390.993 62.5241C392.377 61.7018 393.892 61.0959 395.537 60.7064C397.181 60.2736 398.804 59.9057 400.406 59.6028C402.656 59.17 404.344 58.8237 405.469 58.5641C406.594 58.3044 407.352 58.0014 407.741 57.6552C408.174 57.309 408.391 56.8329 408.391 56.227C408.391 54.9719 407.914 54.0198 406.962 53.3706C406.054 52.7214 404.842 52.3969 403.327 52.3969C402.375 52.3969 401.423 52.57 400.471 52.9162C399.518 53.2624 398.739 53.89 398.133 54.7988C397.528 55.6644 397.246 56.9195 397.29 58.5641L387.941 57.9149C387.855 55.1883 388.266 52.9378 389.175 51.1634C390.084 49.3457 391.317 47.9391 392.875 46.9437C394.476 45.905 396.208 45.1693 398.069 44.7365C399.973 44.3037 401.855 44.0873 403.716 44.0873C407.135 44.0873 409.949 44.7365 412.156 46.0349C414.363 47.29 415.986 49.1293 417.025 51.5529C418.107 53.9332 418.648 56.8329 418.648 60.2519V66.3542C418.648 67.7824 418.648 69.2323 418.648 70.7037C418.648 72.1319 418.648 73.5601 418.648 74.9883C418.648 76.4165 418.648 77.8447 418.648 79.2729H409.559C409.559 77.7149 409.559 76.1352 409.559 74.5339C409.559 72.9326 409.559 71.2447 409.559 69.4703H409.17C408.996 71.4178 408.347 73.2139 407.222 74.8585C406.14 76.4598 404.69 77.7582 402.873 78.7536C401.098 79.7057 399.042 80.1818 396.705 80.1818ZM401.055 72.5215C401.791 72.5215 402.57 72.3916 403.392 72.1319C404.257 71.829 405.058 71.3529 405.794 70.7037C406.573 70.0546 407.2 69.1674 407.676 68.0421C408.153 66.8736 408.391 65.4454 408.391 63.7575V62.1995L410.143 62.0047C409.797 62.5673 409.213 63.0218 408.391 63.368C407.612 63.7142 406.724 63.9955 405.729 64.2119C404.734 64.3851 403.716 64.5798 402.678 64.7962C401.682 64.9693 400.752 65.229 399.886 65.5752C399.021 65.8782 398.307 66.311 397.744 66.8736C397.225 67.3929 396.965 68.1287 396.965 69.0808C396.965 70.206 397.354 71.0716 398.133 71.6775C398.956 72.2401 399.93 72.5215 401.055 72.5215Z" fill="#1A1C1D"/>
<path d="M431.219 24.1394C432.205 22.0402 432.698 20.9906 433.498 20.9906C434.297 20.9906 434.79 22.0402 435.776 24.1394L436.207 25.0555C436.525 25.7335 436.684 26.0726 436.944 26.332C437.203 26.5914 437.542 26.7506 438.22 27.0691L439.136 27.4995C441.235 28.4856 442.285 28.9786 442.285 29.778C442.285 30.5774 441.235 31.0704 439.136 32.0565L438.22 32.4869C437.542 32.8054 437.203 32.9646 436.944 33.224C436.684 33.4834 436.525 33.8225 436.207 34.5005L435.776 35.4166C434.79 37.5158 434.297 38.5654 433.498 38.5654C432.698 38.5654 432.205 37.5158 431.219 35.4166L430.789 34.5005C430.47 33.8225 430.311 33.4834 430.052 33.224C429.792 32.9646 429.453 32.8054 428.775 32.4869L427.859 32.0565C425.76 31.0704 424.71 30.5774 424.71 29.778C424.71 28.9786 425.76 28.4856 427.859 27.4995L428.775 27.0691C429.453 26.7506 429.792 26.5914 430.052 26.332C430.311 26.0726 430.47 25.7335 430.789 25.0555L431.219 24.1394Z" fill="#1A1C1D"/>
</svg>
