<svg width="74" height="67" viewBox="0 0 74 67" fill="none" xmlns="http://www.w3.org/2000/svg">
<path d="M23.4832 16.8729C26.3035 10.869 27.7137 7.86708 30 7.86708C32.2863 7.86708 33.6965 10.869 36.5168 16.8729L37.7477 19.4931C38.6586 21.4324 39.1141 22.402 39.856 23.144C40.598 23.8859 41.5676 24.3414 43.5069 25.2523L46.1271 26.4832C52.131 29.3035 55.1329 30.7137 55.1329 33C55.1329 35.2863 52.131 36.6965 46.1271 39.5168L43.5069 40.7477C41.5676 41.6586 40.598 42.1141 39.856 42.856C39.1141 43.598 38.6586 44.5676 37.7477 46.5069L36.5168 49.1271C33.6965 55.131 32.2863 58.1329 30 58.1329C27.7137 58.1329 26.3035 55.131 23.4832 49.1271L22.2524 46.5069C21.3414 44.5676 20.8859 43.598 20.144 42.856C19.402 42.1141 18.4324 41.6586 16.4931 40.7477L13.8729 39.5168C7.86902 36.6965 4.86708 35.2863 4.86708 33C4.86708 30.7137 7.86902 29.3035 13.8729 26.4832L16.4931 25.2524C18.4324 24.3414 19.402 23.8859 20.144 23.144C20.8859 22.402 21.3414 21.4324 22.2523 19.4931L23.4832 16.8729Z" fill="#0059FF"/>
<path d="M56.9588 6.47402C58.275 3.67221 58.9331 2.27131 60 2.27131C61.0669 2.27131 61.725 3.67221 63.0412 6.47402L63.6156 7.69679C64.0407 8.60179 64.2533 9.05429 64.5995 9.40052C64.9457 9.74675 65.3982 9.95931 66.3032 10.3844L67.526 10.9588C70.3278 12.275 71.7287 12.9331 71.7287 14C71.7287 15.0669 70.3278 15.725 67.526 17.0412L66.3032 17.6156C65.3982 18.0407 64.9457 18.2533 64.5995 18.5995C64.2533 18.9457 64.0407 19.3982 63.6156 20.3032L63.0412 21.526C61.725 24.3278 61.0669 25.7287 60 25.7287C58.9331 25.7287 58.275 24.3278 56.9588 21.526L56.3844 20.3032C55.9593 19.3982 55.7467 18.9457 55.4005 18.5995C55.0543 18.2533 54.6018 18.0407 53.6968 17.6156L52.474 17.0412C49.6722 15.725 48.2713 15.0669 48.2713 14C48.2713 12.9331 49.6722 12.275 52.474 10.9588L53.6968 10.3844C54.6018 9.95931 55.0543 9.74675 55.4005 9.40052C55.7467 9.05429 55.9593 8.60179 56.3844 7.69679L56.9588 6.47402Z" fill="#5A93FF"/>
<path d="M46.6536 53.9307C47.4527 52.2296 47.8522 51.379 48.5 51.379C49.1478 51.379 49.5473 52.2296 50.3464 53.9307L50.6952 54.6731C50.9533 55.2225 51.0823 55.4972 51.2925 55.7075C51.5028 55.9177 51.7775 56.0467 52.3269 56.3048L53.0693 56.6536C54.7704 57.4527 55.621 57.8522 55.621 58.5C55.621 59.1478 54.7704 59.5473 53.0693 60.3464L52.3269 60.6952C51.7775 60.9533 51.5028 61.0823 51.2925 61.2925C51.0823 61.5028 50.9533 61.7775 50.6952 62.3269L50.3464 63.0693C49.5473 64.7704 49.1478 65.621 48.5 65.621C47.8522 65.621 47.4527 64.7704 46.6536 63.0693L46.3048 62.3269C46.0467 61.7775 45.9177 61.5028 45.7075 61.2925C45.4972 61.0823 45.2225 60.9533 44.6731 60.6952L43.9307 60.3464C42.2296 59.5473 41.379 59.1478 41.379 58.5C41.379 57.8522 42.2296 57.4527 43.9307 56.6536L44.6731 56.3048C45.2225 56.0467 45.4972 55.9177 45.7075 55.7075C45.9177 55.4972 46.0467 55.2225 46.3048 54.6731L46.6536 53.9307Z" fill="#7DABFF"/>
</svg>
