<svg width="69" height="68" viewBox="0 0 69 68" fill="none" xmlns="http://www.w3.org/2000/svg">
<path d="M23.4832 13.8729C26.3035 7.86902 27.7137 4.86708 30 4.86708C32.2863 4.86708 33.6965 7.86902 36.5168 13.8729L37.7477 16.4931C38.6586 18.4324 39.1141 19.402 39.856 20.144C40.598 20.8859 41.5676 21.3414 43.5069 22.2523L46.1271 23.4832C52.131 26.3035 55.1329 27.7137 55.1329 30C55.1329 32.2863 52.131 33.6965 46.1271 36.5168L43.5069 37.7477C41.5676 38.6586 40.598 39.1141 39.856 39.856C39.1141 40.598 38.6586 41.5676 37.7477 43.5069L36.5168 46.1271C33.6965 52.131 32.2863 55.1329 30 55.1329C27.7137 55.1329 26.3035 52.131 23.4832 46.1271L22.2524 43.5069C21.3414 41.5676 20.8859 40.598 20.144 39.856C19.402 39.1141 18.4324 38.6586 16.4931 37.7477L13.8729 36.5168C7.86902 33.6965 4.86708 32.2863 4.86708 30C4.86708 27.7137 7.86902 26.3035 13.8729 23.4832L16.4931 22.2524C18.4324 21.3414 19.402 20.8859 20.144 20.144C20.8859 19.402 21.3414 18.4324 22.2523 16.4931L23.4832 13.8729Z" fill="#0059FF"/>
<path d="M51.3502 45.7052C52.7134 42.8034 53.3949 41.3524 54.5 41.3524C55.6051 41.3524 56.2866 42.8034 57.6498 45.7052L58.2447 46.9717C58.685 47.909 58.9052 48.3777 59.2637 48.7363C59.6223 49.0948 60.091 49.315 61.0283 49.7553L62.2948 50.3502C65.1966 51.7134 66.6476 52.3949 66.6476 53.5C66.6476 54.6051 65.1966 55.2866 62.2948 56.6498L61.0283 57.2447C60.091 57.685 59.6223 57.9052 59.2637 58.2637C58.9052 58.6223 58.685 59.091 58.2447 60.0283L57.6498 61.2948C56.2866 64.1966 55.6051 65.6476 54.5 65.6476C53.3949 65.6476 52.7134 64.1966 51.3502 61.2948L50.7553 60.0283C50.315 59.091 50.0948 58.6223 49.7363 58.2637C49.3777 57.9052 48.909 57.685 47.9717 57.2447L46.7052 56.6498C43.8034 55.2866 42.3524 54.6051 42.3524 53.5C42.3524 52.3949 43.8034 51.7134 46.7052 50.3502L47.9717 49.7553C48.909 49.315 49.3777 49.0948 49.7363 48.7363C50.0948 48.3777 50.315 47.909 50.7553 46.9717L51.3502 45.7052Z" fill="#7DABFF"/>
</svg>
